# xmcd
#
# Track frame offsets: 
#        150
#        30516
#        46335
#        56732
#        82943
#        93384
#        107237
#        117403
#        147314
#        170605
#        201345
#        213778
#
# Disc length: 3002 seconds
#
# Revision: 0
# Processed by: cddbd v1.5.1PL0 Copyright (c) Steve Scherf et al.
# Submitted via: ExactAudioCopy v0.95a5
#
DISCID=a60bb80c
DTITLE=Eric_Clapton - Los_que_triunfaron-CD2
DYEAR=2003
DGENRE=Blues
TTITLE0=I shot the sheriff
TTITLE1=Louise
TTITLE2=Let it rock
TTITLE3=Can't find my way home
TTITLE4=A certain girl
TTITLE5=Draggin' my tail
TTITLE6=I wish you would
TTITLE7=Let it rain
TTITLE8=Here 't is
TTITLE9=Smokestack lighting
TTITLE10=Good morning little school girl
TTITLE11=Pounds and stomps
EXTD=
EXTT0=
EXTT1=
EXTT2=
EXTT3=
EXTT4=
EXTT5=
EXTT6=
EXTT7=
EXTT8=
EXTT9=
EXTT10=
EXTT11=
PLAYORDER=
